<svg width="518" height="501" viewBox="0 0 518 501" fill="none" xmlns="http://www.w3.org/2000/svg">
<rect x="287.646" y="47.0335" width="198.344" height="270.063" rx="41" transform="rotate(10.0711 287.646 47.0335)" fill="white"/>
<path d="M334.552 264.348C334.816 259.656 334.609 256.017 333.931 253.432C333.361 250.771 332.017 248.731 329.899 247.312C327.873 245.91 324.787 244.603 320.642 243.393C320.339 242.96 320.237 242.468 320.335 241.917C320.449 241.273 320.815 240.817 321.432 240.547L340.454 243.926C343.119 244.399 344.68 243.349 345.137 240.776L348.809 220.1L312.419 213.637C312.419 213.637 311.683 213.506 310.213 213.245C308.743 212.984 306.851 212.695 304.537 212.379C302.223 212.063 299.847 211.83 297.409 211.682L296.832 205.323C301.237 206.674 305.04 207.681 308.24 208.344C311.532 209.024 313.178 209.363 313.178 209.363L349.568 215.827L351.037 207.556C351.608 204.34 351.887 201.972 351.872 200.453C351.966 198.858 351.881 197.468 351.617 196.284C351.439 195.684 351.521 195.224 351.862 194.905C352.311 194.511 352.895 194.425 353.614 194.648C355.436 195.066 357.914 195.791 361.048 196.821C364.291 197.777 367.288 198.783 370.039 199.84L376.157 189.409L342.662 183.46C342.662 183.46 341.88 183.321 340.318 183.044C338.848 182.783 336.956 182.494 334.642 182.178C332.329 181.862 329.953 181.63 327.514 181.481L326.913 175.26C331.41 176.627 335.258 177.643 338.458 178.306C341.75 178.985 343.396 179.325 343.396 179.325L375.927 185.103C376.662 185.233 377.222 185.285 377.606 185.259C378.098 185.156 378.585 184.816 379.066 184.238C379.424 183.828 379.843 183.334 380.325 182.756C380.823 182.086 381.305 181.508 381.771 181.022C382.377 180.276 383.048 179.969 383.783 180.099C384.059 180.148 384.548 180.33 385.25 180.644C386.288 181.208 387.644 182.112 389.318 183.358C391.009 184.511 392.776 185.773 394.618 187.143C395.414 185.862 396.351 184.322 397.429 182.523C398.507 180.724 399.515 179.054 400.452 177.514C401.497 175.899 402.177 174.74 402.491 174.037L328.056 160.817C328.017 161.569 327.925 162.358 327.778 163.185C327.739 163.937 327.654 164.68 327.524 165.415C326.594 170.653 324.57 174.844 321.452 177.987C318.426 181.146 314.662 182.326 310.159 181.527C307.034 180.972 304.871 179.545 303.667 177.246C302.556 174.963 302.213 172.627 302.637 170.237C302.931 168.583 303.576 167.086 304.572 165.747C305.585 164.315 306.808 163.3 308.241 162.701C312.433 160.981 315.706 159.098 318.061 157.051C320.431 154.913 322.195 151.387 323.352 146.474C323.926 145.912 324.534 145.688 325.177 145.802C325.637 145.884 325.98 146.087 326.207 146.412C326.664 148.105 327.03 149.781 327.304 151.441C327.67 153.118 327.898 154.77 327.988 156.397L359.278 161.955L361.286 150.652C361.971 146.792 362.036 144.291 361.481 143.15C361.336 142.366 361.396 141.76 361.661 141.334C362.127 140.847 362.681 140.662 363.324 140.776C364.335 140.955 365.789 141.308 367.686 141.835C369.583 142.361 371.61 142.958 373.767 143.626C375.94 144.201 377.92 144.79 379.709 145.392C381.59 146.011 382.974 146.493 383.86 146.84C384.898 147.404 385.318 148.237 385.123 149.34C384.861 150.81 383.979 151.506 382.476 151.429C381.449 151.341 380.711 151.495 380.262 151.889C379.813 152.283 379.498 152.986 379.319 153.996L377.336 165.162L401.734 169.495C402.469 169.626 402.983 169.669 403.275 169.627C403.567 169.584 403.954 169.273 404.435 168.695C404.917 168.117 405.524 167.372 406.255 166.459C407.002 165.454 407.608 164.709 408.074 164.222C408.68 163.477 409.305 163.161 409.948 163.276C410.499 163.374 411.072 163.617 411.667 164.007C413.039 164.82 414.789 166.174 416.917 168.068C419.154 169.887 421.32 171.836 423.415 173.915C425.527 175.901 427.128 177.56 428.219 178.891C428.932 179.681 429.174 180.72 428.945 182.006C428.896 182.282 428.731 182.679 428.449 183.198C427.302 184.321 425.855 184.728 424.109 184.418C422.471 184.032 420.501 183.919 418.197 184.079C415.51 184.265 412.465 184.862 409.063 185.869C405.678 186.784 402.027 188.127 398.111 189.896C399.099 190.735 400.004 191.512 400.825 192.226C401.646 192.941 402.337 193.585 402.899 194.159C403.503 195.025 403.732 195.871 403.585 196.698C403.536 196.974 403.371 197.371 403.089 197.89C402.45 198.819 401.625 199.194 400.615 199.014C399.144 198.753 397.42 198.589 395.441 198.522C393.57 198.379 391.651 198.512 389.682 198.921C387.13 199.416 384.569 199.956 382.001 200.543C379.54 201.054 377.271 201.551 375.195 202.036C376.14 202.583 376.515 203.408 376.319 204.51C375.976 206.44 375.116 207.283 373.737 207.038C371.975 206.82 370.607 207.051 369.633 207.731C368.767 208.335 368.171 209.557 367.845 211.394L366.523 218.838L391.61 223.294C392.529 223.457 393.226 223.533 393.702 223.523C394.194 223.421 394.773 223.097 395.439 222.552C395.996 222.082 396.795 221.323 397.834 220.275C398.965 219.244 400.042 218.25 401.065 217.295C402.196 216.263 402.986 215.55 403.435 215.156C404.025 214.503 404.78 214.257 405.699 214.421C406.526 214.568 407.639 215.239 409.038 216.436C410.453 217.54 411.874 218.883 413.299 220.463C414.817 222.059 416.197 223.632 417.438 225.179C418.68 226.727 419.557 227.926 420.07 228.775C420.448 229.316 420.572 229.954 420.441 230.689C420.196 232.068 419.477 232.651 418.282 232.439L365.764 223.111C365.339 225.5 364.92 228.128 364.506 230.993C364.108 233.766 363.719 236.493 363.337 239.174C362.972 241.764 362.664 244.031 362.413 245.978C362.179 247.832 362.013 249.035 361.915 249.586C361.344 252.802 360.086 255.612 358.142 258.016C356.215 260.328 353.35 262.047 349.548 263.173C345.838 264.315 340.839 264.707 334.552 264.348Z" fill="#181818"/>
<rect x="35.0454" y="87.9897" width="198.344" height="270.063" rx="41" transform="rotate(-10.2706 35.0454 87.9897)" fill="#181818"/>
<path d="M137.338 277.715C136.703 277.356 136.328 276.855 136.211 276.212C136.112 275.661 136.137 275.277 136.287 275.06C144.988 270.732 151.762 265.711 156.607 259.996C161.436 254.188 164.378 246.873 165.436 238.05C163.048 238.482 160.798 238.89 158.685 239.273C156.573 239.656 154.645 240.005 152.9 240.321C150.236 240.804 148.032 241.203 146.287 241.519C144.634 241.819 143.67 241.994 143.394 242.044C143.394 242.044 142.209 242.306 139.838 242.83C137.45 243.263 134.803 243.838 131.898 244.554L129.271 239.481C133.011 239.182 136.129 238.855 138.626 238.497C141.197 238.031 142.483 237.798 142.483 237.798L165.902 233.555C165.986 231.927 166.008 230.216 165.967 228.421C166.002 226.517 165.944 224.631 165.795 222.761C163.867 223.11 162.076 223.435 160.423 223.734C158.77 224.034 157.208 224.317 155.739 224.583C153.535 224.982 151.744 225.307 150.367 225.556C148.989 225.806 148.162 225.956 147.887 226.006C147.887 226.006 146.701 226.268 144.33 226.792C142.034 227.208 139.433 227.775 136.528 228.491L134.064 223.531C137.712 223.249 140.785 222.929 143.281 222.572C145.852 222.106 147.138 221.873 147.138 221.873L165.322 218.578C164.965 215.038 164.437 211.34 163.738 207.483L163.564 206.518L150.063 208.965L150.463 211.169C150.629 212.087 150.09 213.038 148.846 214.023C147.601 215.007 146.002 215.866 144.048 216.599C142.186 217.316 140.337 217.841 138.5 218.174C136.204 218.59 134.865 217.742 134.482 215.629C134.399 215.17 134.203 213.83 133.896 211.61C133.664 209.28 133.294 206.454 132.787 203.132C132.263 199.717 131.668 196.173 131.002 192.499C130.403 189.193 129.854 186.684 129.354 184.973C128.929 183.152 128.512 181.9 128.104 181.215C127.837 180.789 127.908 180.397 128.317 180.038C128.468 179.821 128.735 179.726 129.119 179.751C130.271 179.827 132.024 180.078 134.378 180.505C136.715 180.841 139.061 181.222 141.414 181.649C143.86 182.059 145.684 182.44 146.886 182.792L187.386 175.453C188.397 175.27 189.065 174.769 189.391 173.952C189.491 173.459 189.696 172.758 190.006 171.848C190.39 170.83 190.725 170.058 191.009 169.532C191.335 168.714 191.773 168.255 192.324 168.156C192.508 168.122 192.892 168.148 193.476 168.231C194.737 168.382 196.306 168.667 198.184 169.086C200.062 169.504 201.949 169.969 203.843 170.479C205.721 170.898 207.224 171.337 208.35 171.797C209.369 172.181 209.969 172.879 210.152 173.889C210.385 175.175 209.938 176.109 208.811 176.693C208.644 176.818 208.477 176.943 208.31 177.068C208.143 177.193 207.976 177.319 207.809 177.444C206.489 178.536 206.054 180.323 206.503 182.802C206.753 184.18 207.131 186.008 207.639 188.288C208.239 190.55 208.759 192.638 209.201 194.549C209.734 196.445 210.05 197.668 210.15 198.219C210.35 199.321 209.598 200.406 207.894 201.473C206.191 202.541 204.17 203.429 201.832 204.137C202.85 204.522 204.102 205.148 205.588 206.017C207.073 206.887 208.521 207.81 209.931 208.787C211.433 209.748 212.535 210.592 213.235 211.319C213.577 211.636 213.79 212.025 213.873 212.484C214.056 213.494 213.735 214.074 212.908 214.224L181.362 219.94C181.602 223.88 181.545 227.495 181.193 230.784L203.371 226.765C204.749 226.515 205.638 225.927 206.04 225.001C206.366 224.183 206.901 222.948 207.645 221.296C208.48 219.626 209.07 218.429 209.412 217.703C209.663 216.993 210.11 216.58 210.753 216.464C211.12 216.397 211.604 216.452 212.205 216.628C213.224 217.012 214.53 217.677 216.124 218.621C217.809 219.549 219.412 220.539 220.93 221.591C222.541 222.628 223.742 223.501 224.535 224.211C224.986 224.603 225.261 225.075 225.361 225.626C225.544 226.636 225.176 227.225 224.258 227.391L184.17 234.655C187.817 237.504 192.227 239.598 197.402 240.936C202.653 242.167 208.187 242.871 214.005 243.05C219.807 243.137 225.267 242.906 230.384 242.359C228.597 244.01 226.976 246.059 225.522 248.504C224.052 250.857 222.873 253.252 221.987 255.689C221.192 258.11 220.724 260.234 220.581 262.062C215.113 261.725 209.808 260.457 204.667 258.259C199.543 256.152 194.882 253.202 190.686 249.41C186.581 245.601 183.257 241.128 180.714 235.993C178.962 246.744 174.403 255.348 167.037 261.805C159.745 268.153 149.845 273.457 137.338 277.715ZM146.8 179.962C144.688 180.344 143.457 179.572 143.107 177.643L141.66 168.088L132.155 169.81C130.686 170.076 129.225 170.389 127.772 170.747C126.303 171.013 125.025 171.292 123.94 171.583C124.047 173.746 123.583 175.632 122.546 177.242C121.494 178.761 120.228 179.892 118.75 180.634C118.4 180.792 118.049 180.95 117.698 181.109C117.423 181.159 117.101 181.217 116.734 181.284C115.356 181.533 114.058 181.436 112.84 180.993C111.696 180.442 110.808 179.464 110.174 178.062C108.557 174.371 106.534 171.323 104.107 168.917C101.754 166.403 98.8123 164.564 95.2818 163.402C95.0316 163.068 94.8815 162.763 94.8316 162.488C94.6818 161.661 94.9493 161.043 95.6341 160.635C99.5831 159.919 103.377 159.659 107.017 159.853C110.732 159.938 113.979 160.583 116.758 161.787C119.521 162.899 121.494 164.628 122.678 166.975C123.98 166.833 125.374 166.676 126.86 166.501C128.422 166.218 129.937 165.944 131.406 165.677L140.912 163.955C140.828 163.496 140.745 163.037 140.662 162.578C140.671 162.102 140.642 161.68 140.575 161.313C140.093 158.649 139.572 156.562 139.014 155.051C138.53 153.431 138.047 152.333 137.563 151.757C137.188 151.256 137.096 150.75 137.288 150.241C137.514 149.916 137.902 149.703 138.453 149.603C139.555 149.404 141.325 149.225 143.763 149.068C146.293 148.894 148.83 148.766 151.377 148.685C153.998 148.494 155.839 148.445 156.899 148.538C157.467 148.53 157.875 148.693 158.126 149.027C158.376 149.361 158.497 149.766 158.488 150.241C158.671 151.252 158.182 151.957 157.022 152.357C155.419 152.932 154.742 153.908 154.992 155.286L156.065 161.209L168.738 158.913L168.264 156.295C167.782 153.632 167.261 151.545 166.703 150.034C166.219 148.414 165.782 147.307 165.39 146.714C165.015 146.213 164.923 145.708 165.115 145.199C165.249 144.89 165.637 144.678 166.28 144.561C167.382 144.361 169.152 144.183 171.59 144.026C174.119 143.852 176.657 143.724 179.203 143.642C181.733 143.468 183.528 143.428 184.588 143.52C185.523 143.446 186.082 143.913 186.265 144.924C186.481 146.118 186.009 146.915 184.849 147.315C183.154 147.906 182.431 148.891 182.681 150.268C182.83 151.095 183.005 152.059 183.205 153.161C183.48 154.155 183.709 155.157 183.892 156.167L190.229 155.019C191.698 154.753 192.633 154.156 193.035 153.23C193.361 152.412 193.896 151.177 194.64 149.524C195.475 147.855 196.019 146.666 196.27 145.956C196.704 145.214 197.197 144.792 197.748 144.693C198.207 144.609 198.645 144.672 199.063 144.881C200.173 145.249 201.525 145.905 203.119 146.85C204.804 147.777 206.406 148.767 207.925 149.82C209.519 150.764 210.712 151.592 211.505 152.302C211.739 152.544 211.926 152.794 212.068 153.053C212.193 153.22 212.281 153.442 212.331 153.717C212.514 154.727 212.146 155.316 211.228 155.482L184.641 160.3L186.414 168.515C186.564 169.342 186.008 170.201 184.747 171.094C183.578 171.97 182.062 172.766 180.2 173.483C178.413 174.091 176.647 174.553 174.902 174.87C172.79 175.252 171.559 174.479 171.21 172.551L169.487 163.046L156.814 165.342L158.311 173.607C158.461 174.434 157.906 175.293 156.644 176.186C155.475 177.062 153.96 177.858 152.098 178.575C150.311 179.183 148.545 179.646 146.8 179.962ZM123.712 281.038C121.324 281.471 119.229 281.423 117.426 280.896C115.639 280.461 114.563 279.233 114.197 277.213C113.864 275.376 113.745 272.884 113.839 269.737C113.932 266.59 113.671 263.317 113.056 259.919C112.939 259.277 112.785 258.688 112.593 258.154C112.477 257.511 112.314 256.876 112.106 256.25C110.623 251.207 106.71 247.932 100.366 246.426C100.241 246.259 100.145 245.991 100.079 245.624C99.9124 244.706 100.263 244.026 101.132 243.584C103.745 243.869 105.74 243.887 107.117 243.637C109.138 243.271 110.382 242.287 110.851 240.684C111.528 238.665 112.41 235.944 113.498 232.522C114.585 229.1 115.768 225.423 117.048 221.492C118.403 217.452 119.72 213.467 120.999 209.536C122.371 205.588 123.579 202.049 124.625 198.919C125.745 195.681 126.632 193.244 127.284 191.608C127.451 191.483 127.718 191.387 128.085 191.32C128.912 191.171 129.584 191.476 130.101 192.236C129.799 193.713 129.335 196.121 128.707 199.46C128.17 202.782 127.588 206.635 126.959 211.017C126.314 215.307 125.748 219.773 125.261 224.414C124.849 228.947 124.596 233.309 124.501 237.499C124.482 241.582 124.722 245 125.222 247.755C125.879 250.861 126.879 253.763 128.222 256.46C129.639 259.049 130.986 261.508 132.262 263.838C133.63 266.151 134.505 268.364 134.888 270.476C135.32 272.864 134.346 275.08 131.966 277.123C129.586 279.167 126.834 280.472 123.712 281.038ZM109.838 216.253C108.461 216.503 107.2 216.352 106.057 215.8C104.897 215.157 104.03 214.034 103.454 212.43C102.363 209.024 100.883 205.83 99.0149 202.848C97.1467 199.867 94.6394 197.808 91.4929 196.671C91.2426 196.337 91.1009 196.078 91.0676 195.894C90.9178 195.067 91.2229 194.396 91.9829 193.878C98.3363 192.822 103.913 193.234 108.712 195.116C113.586 196.888 116.464 200.208 117.346 205.076C117.912 208.198 117.334 210.769 115.613 212.788C113.876 214.716 111.951 215.871 109.838 216.253ZM190.089 179.374L175.487 182.02L178.657 199.515L193.259 196.869L190.089 179.374ZM159.645 184.891L146.144 187.337L149.315 204.832L162.815 202.386L159.645 184.891ZM181.026 215.732L193.838 213.411C195.123 213.178 195.958 212.552 196.343 211.534C196.669 210.716 197.183 209.627 197.885 208.267C198.571 206.815 199.047 205.78 199.315 205.162C199.465 204.945 199.54 204.837 199.54 204.837L198.163 205.086C195.959 205.486 194.673 204.675 194.307 202.655L194.008 201.002L179.406 203.648L179.58 204.612C179.93 206.541 180.225 208.432 180.466 210.285C180.707 212.138 180.894 213.954 181.026 215.732Z" fill="white"/>
<path d="M84.6188 448.974C80.5868 448.974 76.4908 448.462 72.3308 447.438C68.1708 446.478 64.6508 445.166 61.7708 443.502L65.2268 427.854C68.9388 429.838 72.3948 431.15 75.5948 431.79C78.8588 432.366 81.8668 432.654 84.6188 432.654C87.1788 432.654 89.0988 432.238 90.3788 431.406C91.7228 430.574 92.3948 429.454 92.3948 428.046C92.3948 426.766 91.6588 425.774 90.1868 425.07C88.7148 424.302 86.7948 423.598 84.4268 422.958C82.1228 422.318 79.6588 421.582 77.0348 420.75C74.4108 419.854 71.9148 418.702 69.5468 417.294C67.2428 415.822 65.3548 413.902 63.8828 411.534C62.4108 409.102 61.6748 406.062 61.6748 402.414C61.6748 397.806 62.7948 393.838 65.0348 390.51C67.2748 387.118 70.4748 384.526 74.6348 382.734C78.7948 380.878 83.6908 379.95 89.3228 379.95C93.0988 379.95 96.7788 380.462 100.363 381.486C104.011 382.446 106.923 383.758 109.099 385.422L105.835 399.534C102.571 398.19 99.6268 397.23 97.0028 396.654C94.4428 396.014 92.0108 395.694 89.7068 395.694C87.0188 395.694 84.9708 396.078 83.5628 396.846C82.1548 397.614 81.4508 398.638 81.4508 399.918C81.4508 401.134 82.1868 402.126 83.6588 402.894C85.1308 403.662 87.0188 404.398 89.3228 405.102C91.6268 405.806 94.0908 406.606 96.7148 407.502C99.3388 408.398 101.803 409.582 104.107 411.054C106.411 412.526 108.299 414.446 109.771 416.814C111.243 419.182 111.979 422.158 111.979 425.742C111.979 433.166 109.547 438.894 104.683 442.926C99.8828 446.958 93.1948 448.974 84.6188 448.974Z" fill="white"/>
<path d="M118.553 447.438V381.294H140.921C151.801 381.294 159.993 383.086 165.497 386.67C171.065 390.19 173.849 395.406 173.849 402.318C173.849 407.118 172.633 411.214 170.201 414.606C167.833 417.934 164.473 420.494 160.121 422.286C155.769 424.014 150.649 424.878 144.761 424.878H139.769V447.438H118.553ZM143.897 411.534C147.289 411.534 149.913 410.83 151.769 409.422C153.625 408.014 154.553 405.902 154.553 403.086C154.553 400.462 153.657 398.51 151.865 397.23C150.073 395.886 147.481 395.214 144.089 395.214H139.769V411.534H143.897Z" fill="white"/>
<path d="M180.709 447.438V381.39H201.445V432.27H224.869L223.909 447.438H180.709Z" fill="white"/>
<path d="M232.178 447.438V381.39H253.874V447.438H232.178Z" fill="white"/>
<path d="M274.796 447.438V396.558H259.916V381.39L295.505 381.294L287.296 447.438H274.796Z" fill="white"/>
<path d="M298.997 458.536L307.421 392.488H336.245V407.656H321.365V458.536H298.997Z" fill="white"/>
<path d="M342.254 458.536V392.488H388.622V407.08H365.582V418.792H386.606V430.888H365.582V443.464H388.622V458.536H342.254Z" fill="white"/>
<path d="M447.301 460.072C442.693 460.072 438.885 459.4 435.877 458.056C432.869 456.648 430.469 454.728 428.677 452.296C426.885 449.864 425.541 447.016 424.645 443.752C423.749 440.488 423.141 436.968 422.821 433.192H418.309V458.536H397.285V392.488H424.453C434.949 392.488 442.501 394.344 447.109 398.056C451.781 401.704 454.117 406.664 454.117 412.936C454.117 416.712 453.093 420.104 451.045 423.112C448.997 426.056 445.701 428.52 441.157 430.504C441.413 431.912 441.637 433.064 441.829 433.96C442.021 434.856 442.309 435.848 442.693 436.936C443.525 439.24 444.549 440.84 445.765 441.736C447.045 442.632 448.773 443.08 450.949 443.08C452.357 443.08 453.765 442.888 455.173 442.504L456.325 458.248C455.045 458.76 453.669 459.176 452.197 459.496C450.789 459.88 449.157 460.072 447.301 460.072ZM418.309 420.04H421.957C426.693 420.04 430.021 419.528 431.941 418.504C433.925 417.416 434.917 415.592 434.917 413.032C434.917 410.856 434.117 409.288 432.517 408.328C430.917 407.304 428.389 406.792 424.933 406.792H418.309V420.04Z" fill="white"/>
</svg>
