<svg width="232" height="70" viewBox="0 0 232 70" fill="none" xmlns="http://www.w3.org/2000/svg">
<path d="M9.84628 33.1168L7.42215 25.2384L26.5397 5.8454H37.6136L9.84628 33.1168ZM3.01465 44.4111V5.8454H12.3806V44.4111H3.01465ZM27.7518 44.4111L13.4274 25.569L19.7632 20.1147L38.6603 44.4111H27.7518Z" fill="white"/>
<path d="M51.1301 44.9069C48.6692 44.9069 46.4654 44.2642 44.5188 42.9786C42.6089 41.6564 41.0846 39.8566 39.946 37.5794C38.8074 35.2655 38.2381 32.6577 38.2381 29.7561C38.2381 26.781 38.8074 24.1549 39.946 21.8777C41.0846 19.6005 42.6456 17.8191 44.629 16.5336C46.6124 15.2113 48.8712 14.5502 51.4055 14.5502C52.8012 14.5502 54.0684 14.7522 55.207 15.1563C56.3823 15.5603 57.4108 16.1296 58.2923 16.8642C59.1738 17.562 59.9267 18.3884 60.5511 19.3434C61.1755 20.2616 61.6346 21.2533 61.9284 22.3184L60.1103 22.0981V15.1563H68.8703V44.4111H59.9451V37.3591L61.9284 37.304C61.6346 38.3324 61.1571 39.3057 60.496 40.2239C59.8349 41.1422 59.0268 41.9502 58.0719 42.6481C57.1169 43.3459 56.0518 43.8969 54.8764 44.3009C53.7011 44.7049 52.4523 44.9069 51.1301 44.9069ZM53.5542 37.4692C54.9132 37.4692 56.0885 37.157 57.0802 36.5327C58.0719 35.9083 58.8432 35.0268 59.3941 33.8881C59.9451 32.7128 60.2205 31.3355 60.2205 29.7561C60.2205 28.1768 59.9451 26.8178 59.3941 25.6792C58.8432 24.5038 58.0719 23.604 57.0802 22.9796C56.0885 22.3184 54.9132 21.9879 53.5542 21.9879C52.2319 21.9879 51.075 22.3184 50.0833 22.9796C49.1283 23.604 48.3754 24.5038 47.8244 25.6792C47.2735 26.8178 46.998 28.1768 46.998 29.7561C46.998 31.3355 47.2735 32.7128 47.8244 33.8881C48.3754 35.0268 49.1283 35.9083 50.0833 36.5327C51.075 37.157 52.2319 37.4692 53.5542 37.4692Z" fill="white"/>
<path d="M76.6484 44.4111V15.1563H80.8355H85.0227L85.2981 21.1064L83.5351 21.7675C83.9391 20.4453 84.6554 19.2516 85.6838 18.1864C86.7489 17.0845 88.0161 16.203 89.4852 15.5419C90.9544 14.8808 92.497 14.5502 94.1131 14.5502C96.3169 14.5502 98.1717 15.0093 99.6776 15.9276C101.184 16.8091 102.322 18.1497 103.093 19.9494C103.865 21.7124 104.25 23.8794 104.25 26.4505V44.4111H95.3803V27.1667C95.3803 25.9914 95.215 25.018 94.8844 24.2467C94.5539 23.4754 94.0397 22.9061 93.3418 22.5388C92.6807 22.1348 91.8543 21.9512 90.8626 21.9879C90.0913 21.9879 89.3751 22.1164 88.7139 22.3735C88.0528 22.5939 87.4835 22.9428 87.006 23.4203C86.5286 23.8611 86.1429 24.3753 85.8491 24.963C85.592 25.5506 85.4634 26.1934 85.4634 26.8912V44.4111H81.111C80.0826 44.4111 79.2011 44.4111 78.4665 44.4111C77.7319 44.4111 77.1259 44.4111 76.6484 44.4111Z" fill="white"/>
<path d="M159.946 44.8518C157.045 44.8518 154.363 44.3743 151.903 43.4194C149.478 42.4277 147.367 41.0503 145.567 39.2873C143.767 37.4876 142.371 35.3757 141.38 32.9515C140.425 30.4907 139.947 27.7911 139.947 24.8527C139.947 21.9879 140.461 19.3434 141.49 16.9192C142.518 14.4951 143.932 12.4015 145.732 10.6385C147.569 8.8388 149.717 7.44309 152.178 6.4514C154.676 5.45971 157.394 4.96387 160.332 4.96387C162.168 4.96387 163.968 5.20261 165.731 5.68009C167.494 6.15757 169.129 6.87379 170.635 7.82874C172.177 8.74698 173.499 9.84885 174.601 11.1344L168.872 17.6905C168.1 16.8825 167.274 16.1846 166.392 15.597C165.548 14.9726 164.611 14.4951 163.583 14.1645C162.554 13.834 161.452 13.6687 160.277 13.6687C158.808 13.6687 157.412 13.9442 156.09 14.4951C154.804 15.0093 153.666 15.7623 152.674 16.7539C151.719 17.7089 150.966 18.8842 150.415 20.2799C149.864 21.6757 149.589 23.2367 149.589 24.9629C149.589 26.6525 149.864 28.1951 150.415 29.5908C150.966 30.9498 151.737 32.1251 152.729 33.1168C153.721 34.1085 154.914 34.8614 156.31 35.3757C157.743 35.8899 159.322 36.147 161.048 36.147C162.224 36.147 163.344 35.9817 164.409 35.6511C165.474 35.3206 166.447 34.8798 167.329 34.3289C168.247 33.7412 169.055 33.0801 169.753 32.3455L174.271 39.5077C173.352 40.5361 172.122 41.4543 170.579 42.2624C169.074 43.0704 167.384 43.7132 165.511 44.1907C163.674 44.6314 161.82 44.8518 159.946 44.8518Z" fill="white"/>
<path d="M189.715 44.9069C187.548 44.9069 185.694 44.4478 184.151 43.5295C182.645 42.5746 181.47 41.2156 180.625 39.4526C179.817 37.6896 179.413 35.5777 179.413 33.1168V15.046H188.283V31.9047C188.283 33.0801 188.467 34.0901 188.834 34.9349C189.201 35.7797 189.752 36.4408 190.487 36.9183C191.221 37.359 192.103 37.5794 193.131 37.5794C193.903 37.5794 194.6 37.4509 195.225 37.1938C195.886 36.9366 196.437 36.5877 196.878 36.147C197.355 35.6695 197.722 35.1369 197.98 34.5492C198.237 33.9249 198.365 33.2454 198.365 32.5108V15.046H207.235V44.3009H198.916L198.531 38.2956L200.183 37.6345C199.743 39.0302 199.008 40.279 197.98 41.3809C196.951 42.446 195.721 43.3092 194.288 43.9703C192.856 44.5947 191.332 44.9069 189.715 44.9069Z" fill="white"/>
<path d="M217.516 44.3009V7.66347H226.331V44.3009H217.516ZM212.337 22.7592V15.046H232.006V22.7592H212.337Z" fill="white"/>
<path d="M123.108 15.0499L132.217 15.0499V44.9069H123.108V30.0683V15.0499Z" fill="#EE6B4D"/>
<ellipse cx="114.505" cy="6.85919" rx="6.8609" ry="6.85919" fill="#EE6B4D"/>
<circle cx="129.946" cy="6.85919" r="6.85919" fill="#EE6B4D"/>
<path d="M112.257 15.0499H121.366C121.366 24.6517 117.76 33.9035 111.262 40.9729L107.643 44.9106L107.849 44.245C110.771 34.7888 112.257 24.9474 112.257 15.0499Z" fill="#EE6B4D"/>
<path d="M112.629 59.6566C111.544 59.419 110.77 59.0936 110.305 58.6804C109.85 58.2672 109.623 57.73 109.623 57.0689C109.623 56.3252 109.897 55.7467 110.444 55.3335C111.002 54.9099 111.823 54.6982 112.908 54.6982C113.59 54.6982 114.266 54.7601 114.938 54.8841C115.165 54.9254 115.346 55.0391 115.48 55.225C115.625 55.4006 115.697 55.6072 115.697 55.8448C115.697 56.0411 115.62 56.2012 115.465 56.3252C115.31 56.4388 115.134 56.4698 114.938 56.4181C114.359 56.2735 113.75 56.2012 113.109 56.2012C112.18 56.2012 111.715 56.4594 111.715 56.9759C111.715 57.2239 111.803 57.4305 111.978 57.5958C112.154 57.761 112.453 57.8902 112.877 57.9831C114.065 58.2207 114.876 58.541 115.31 58.9438C115.754 59.3467 115.976 59.9355 115.976 60.7103C115.976 61.454 115.697 62.0325 115.139 62.4457C114.581 62.8589 113.771 63.0655 112.707 63.0655C112.014 63.0655 111.307 62.9829 110.584 62.8176C110.356 62.766 110.17 62.6472 110.026 62.4612C109.881 62.265 109.809 62.0429 109.809 61.7949C109.809 61.5987 109.886 61.4489 110.041 61.3456C110.207 61.2423 110.382 61.2164 110.568 61.2681C111.24 61.454 111.875 61.547 112.474 61.547C113.414 61.547 113.884 61.2681 113.884 60.7103C113.884 60.4417 113.791 60.2299 113.605 60.075C113.43 59.92 113.104 59.7806 112.629 59.6566ZM117.929 56.666C117.722 56.666 117.547 56.5937 117.402 56.4491C117.258 56.2942 117.185 56.1134 117.185 55.9068C117.185 55.7002 117.258 55.5246 117.402 55.3799C117.547 55.2353 117.722 55.163 117.929 55.163H118.673C118.766 55.163 118.812 55.1165 118.812 55.0236V53.1022C118.812 52.8646 118.895 52.658 119.06 52.4824C119.236 52.3067 119.442 52.2189 119.68 52.2189H119.99C120.228 52.2189 120.434 52.3067 120.61 52.4824C120.785 52.658 120.873 52.8646 120.873 53.1022V55.0236C120.873 55.1165 120.92 55.163 121.013 55.163H122.779C122.986 55.163 123.161 55.2353 123.306 55.3799C123.461 55.5246 123.538 55.7002 123.538 55.9068C123.538 56.1134 123.461 56.2942 123.306 56.4491C123.161 56.5937 122.986 56.666 122.779 56.666H121.013C120.92 56.666 120.873 56.7074 120.873 56.79V59.92C120.873 60.5915 120.945 61.0253 121.09 61.2216C121.235 61.4179 121.534 61.516 121.989 61.516C122.237 61.516 122.423 61.5057 122.547 61.485C122.753 61.4644 122.934 61.5109 123.089 61.6245C123.244 61.7381 123.321 61.8931 123.321 62.0893C123.321 62.3166 123.244 62.5232 123.089 62.7091C122.944 62.8848 122.764 62.9829 122.547 63.0036C122.092 63.0449 121.751 63.0655 121.524 63.0655C120.522 63.0655 119.819 62.8538 119.417 62.4302C119.014 61.9964 118.812 61.2268 118.812 60.1215V56.79C118.812 56.7074 118.766 56.666 118.673 56.666H117.929ZM126.567 62.9106C126.329 62.9106 126.122 62.8228 125.947 62.6472C125.771 62.4716 125.683 62.265 125.683 62.0274V55.7363C125.683 55.4987 125.771 55.2921 125.947 55.1165C126.122 54.9409 126.329 54.8531 126.567 54.8531H126.877C127.114 54.8531 127.321 54.9409 127.496 55.1165C127.672 55.2921 127.76 55.4987 127.76 55.7363V56.3871C127.76 56.3975 127.765 56.4026 127.775 56.4026C127.796 56.4026 127.806 56.3975 127.806 56.3871C128.106 55.9739 128.498 55.6382 128.984 55.3799C129.469 55.1114 130.001 54.9461 130.58 54.8841C130.797 54.8634 130.983 54.9358 131.138 55.101C131.293 55.256 131.37 55.4419 131.37 55.6589C131.37 55.8758 131.293 56.0617 131.138 56.2167C130.983 56.3716 130.797 56.4594 130.58 56.4801C128.751 56.6247 127.837 57.5544 127.837 59.2692V62.0274C127.837 62.265 127.749 62.4716 127.574 62.6472C127.398 62.8228 127.192 62.9106 126.954 62.9106H126.567ZM137.643 56.852C137.343 56.4181 136.889 56.2012 136.279 56.2012C135.67 56.2012 135.21 56.4181 134.9 56.852C134.601 57.2755 134.451 57.9521 134.451 58.8818C134.451 59.8116 134.601 60.4933 134.9 60.9272C135.21 61.3507 135.67 61.5625 136.279 61.5625C136.889 61.5625 137.343 61.3507 137.643 60.9272C137.953 60.4933 138.108 59.8116 138.108 58.8818C138.108 57.9521 137.953 57.2755 137.643 56.852ZM139.161 61.9809C138.48 62.704 137.519 63.0655 136.279 63.0655C135.04 63.0655 134.074 62.704 133.382 61.9809C132.7 61.2474 132.359 60.2144 132.359 58.8818C132.359 57.5493 132.7 56.5214 133.382 55.7983C134.074 55.0649 135.04 54.6982 136.279 54.6982C137.519 54.6982 138.48 55.0649 139.161 55.7983C139.854 56.5214 140.2 57.5493 140.2 58.8818C140.2 60.2144 139.854 61.2474 139.161 61.9809ZM142.76 62.9106C142.522 62.9106 142.315 62.8228 142.14 62.6472C141.964 62.4716 141.876 62.265 141.876 62.0274V52.1725C141.876 51.9349 141.964 51.7283 142.14 51.5526C142.315 51.377 142.522 51.2892 142.76 51.2892H143.07C143.307 51.2892 143.514 51.377 143.689 51.5526C143.865 51.7283 143.953 51.9349 143.953 52.1725V58.1381C143.953 58.1484 143.958 58.1536 143.968 58.1536H143.984L146.339 55.5039C146.721 55.07 147.207 54.8531 147.796 54.8531H148.446C148.612 54.8531 148.725 54.9306 148.787 55.0855C148.86 55.2405 148.839 55.3799 148.725 55.5039L145.89 58.6339C145.838 58.6959 145.838 58.7631 145.89 58.8354L148.756 62.2443C148.87 62.3786 148.885 62.5232 148.803 62.6782C148.73 62.8331 148.612 62.9106 148.446 62.9106H147.796C147.207 62.9106 146.726 62.6833 146.355 62.2288L143.984 59.3622C143.984 59.3519 143.979 59.3467 143.968 59.3467C143.958 59.3467 143.953 59.3519 143.953 59.3622V62.0274C143.953 62.265 143.865 62.4716 143.689 62.6472C143.514 62.8228 143.307 62.9106 143.07 62.9106H142.76ZM153.195 56.1392C152.668 56.1392 152.26 56.289 151.971 56.5886C151.692 56.8778 151.516 57.3478 151.444 57.9986C151.444 58.0813 151.485 58.1226 151.568 58.1226H154.605C154.687 58.1226 154.729 58.0813 154.729 57.9986C154.687 56.759 154.176 56.1392 153.195 56.1392ZM153.582 63.0655C152.229 63.0655 151.185 62.7143 150.452 62.0119C149.729 61.2991 149.367 60.2558 149.367 58.8818C149.367 57.5183 149.693 56.4801 150.344 55.7673C150.994 55.0545 151.934 54.6982 153.164 54.6982C155.457 54.6982 156.635 55.9998 156.697 58.6029C156.707 58.8509 156.619 59.0575 156.433 59.2227C156.247 59.388 156.03 59.4707 155.782 59.4707H151.552C151.459 59.4707 151.423 59.5171 151.444 59.6101C151.516 60.3022 151.743 60.8084 152.126 61.1286C152.518 61.4385 153.086 61.5935 153.83 61.5935C154.295 61.5935 154.811 61.516 155.38 61.3611C155.565 61.3094 155.736 61.3404 155.891 61.454C156.056 61.5677 156.139 61.7226 156.139 61.9189C156.139 62.1565 156.066 62.3683 155.922 62.5542C155.788 62.7298 155.607 62.8383 155.38 62.8796C154.801 63.0036 154.202 63.0655 153.582 63.0655ZM164.895 57.8282V59.9355C164.895 60.3487 165.07 60.7154 165.422 61.0357C165.773 61.3559 166.191 61.516 166.677 61.516C167.224 61.516 167.658 61.2991 167.978 60.8652C168.298 60.421 168.459 59.7599 168.459 58.8818C168.459 57.1257 167.865 56.2477 166.677 56.2477C166.191 56.2477 165.773 56.4078 165.422 56.728C165.07 57.0483 164.895 57.415 164.895 57.8282ZM163.733 62.9106C163.495 62.9106 163.288 62.8228 163.113 62.6472C162.937 62.4716 162.849 62.265 162.849 62.0274V52.1725C162.849 51.9349 162.937 51.7283 163.113 51.5526C163.288 51.377 163.495 51.2892 163.733 51.2892H164.042C164.28 51.2892 164.487 51.377 164.662 51.5526C164.838 51.7283 164.926 51.9349 164.926 52.1725V55.6589C164.926 55.6692 164.931 55.6744 164.941 55.6744C164.952 55.6744 164.962 55.6692 164.972 55.6589C165.644 55.0184 166.418 54.6982 167.296 54.6982C168.268 54.6982 169.042 55.0649 169.621 55.7983C170.21 56.5214 170.504 57.5493 170.504 58.8818C170.504 60.1731 170.199 61.1958 169.59 61.9499C168.98 62.6937 168.216 63.0655 167.296 63.0655C166.356 63.0655 165.546 62.6833 164.864 61.9189C164.853 61.9086 164.843 61.9034 164.833 61.9034C164.822 61.9034 164.817 61.9086 164.817 61.9189L164.802 62.0274C164.791 62.2753 164.698 62.487 164.523 62.6627C164.358 62.8279 164.151 62.9106 163.903 62.9106H163.733ZM173.867 62.7866L171.295 55.6744C171.233 55.4678 171.259 55.2818 171.372 55.1165C171.486 54.9409 171.651 54.8531 171.868 54.8531H172.333C172.591 54.8531 172.829 54.9358 173.046 55.101C173.263 55.256 173.402 55.4574 173.464 55.7053L174.905 60.7723C174.905 60.7826 174.91 60.7877 174.921 60.7877C174.931 60.7877 174.936 60.7826 174.936 60.7723L176.594 55.6899C176.677 55.4419 176.826 55.2405 177.043 55.0855C177.26 54.9306 177.498 54.8531 177.756 54.8531H178.128C178.345 54.8531 178.51 54.9409 178.624 55.1165C178.748 55.2921 178.769 55.4781 178.686 55.6744L174.905 65.4983C174.812 65.7462 174.657 65.9425 174.44 66.0871C174.223 66.242 173.981 66.3195 173.712 66.3195H173.34C173.133 66.3195 172.968 66.2317 172.844 66.0561C172.731 65.8908 172.715 65.71 172.798 65.5138L173.867 63.0345C173.888 62.9932 173.898 62.9519 173.898 62.9106C173.898 62.8693 173.888 62.8279 173.867 62.7866ZM187.336 59.6566C186.251 59.419 185.476 59.0936 185.011 58.6804C184.557 58.2672 184.33 57.73 184.33 57.0689C184.33 56.3252 184.603 55.7467 185.151 55.3335C185.709 54.9099 186.53 54.6982 187.614 54.6982C188.296 54.6982 188.973 54.7601 189.644 54.8841C189.872 54.9254 190.052 55.0391 190.187 55.225C190.331 55.4006 190.404 55.6072 190.404 55.8448C190.404 56.0411 190.326 56.2012 190.171 56.3252C190.016 56.4388 189.841 56.4698 189.644 56.4181C189.066 56.2735 188.456 56.2012 187.816 56.2012C186.886 56.2012 186.421 56.4594 186.421 56.9759C186.421 57.2239 186.509 57.4305 186.685 57.5958C186.86 57.761 187.16 57.8902 187.583 57.9831C188.771 58.2207 189.582 58.541 190.016 58.9438C190.46 59.3467 190.683 59.9355 190.683 60.7103C190.683 61.454 190.404 62.0325 189.846 62.4457C189.288 62.8589 188.477 63.0655 187.413 63.0655C186.721 63.0655 186.013 62.9829 185.29 62.8176C185.063 62.766 184.877 62.6472 184.732 62.4612C184.588 62.265 184.515 62.0429 184.515 61.7949C184.515 61.5987 184.593 61.4489 184.748 61.3456C184.913 61.2423 185.089 61.2164 185.275 61.2681C185.946 61.454 186.581 61.547 187.181 61.547C188.121 61.547 188.591 61.2681 188.591 60.7103C188.591 60.4417 188.498 60.2299 188.312 60.075C188.136 59.92 187.811 59.7806 187.336 59.6566ZM192.636 56.666C192.429 56.666 192.253 56.5937 192.109 56.4491C191.964 56.2942 191.892 56.1134 191.892 55.9068C191.892 55.7002 191.964 55.5246 192.109 55.3799C192.253 55.2353 192.429 55.163 192.636 55.163H193.379C193.472 55.163 193.519 55.1165 193.519 55.0236V53.1022C193.519 52.8646 193.601 52.658 193.767 52.4824C193.942 52.3067 194.149 52.2189 194.387 52.2189H194.696C194.934 52.2189 195.141 52.3067 195.316 52.4824C195.492 52.658 195.58 52.8646 195.58 53.1022V55.0236C195.58 55.1165 195.626 55.163 195.719 55.163H197.486C197.692 55.163 197.868 55.2353 198.012 55.3799C198.167 55.5246 198.245 55.7002 198.245 55.9068C198.245 56.1134 198.167 56.2942 198.012 56.4491C197.868 56.5937 197.692 56.666 197.486 56.666H195.719C195.626 56.666 195.58 56.7074 195.58 56.79V59.92C195.58 60.5915 195.652 61.0253 195.797 61.2216C195.941 61.4179 196.241 61.516 196.695 61.516C196.943 61.516 197.129 61.5057 197.253 61.485C197.46 61.4644 197.641 61.5109 197.796 61.6245C197.95 61.7381 198.028 61.8931 198.028 62.0893C198.028 62.3166 197.95 62.5232 197.796 62.7091C197.651 62.8848 197.47 62.9829 197.253 63.0036C196.799 63.0449 196.458 63.0655 196.23 63.0655C195.228 63.0655 194.526 62.8538 194.123 62.4302C193.72 61.9964 193.519 61.2268 193.519 60.1215V56.79C193.519 56.7074 193.472 56.666 193.379 56.666H192.636ZM201.273 62.9106C201.036 62.9106 200.829 62.8228 200.653 62.6472C200.478 62.4716 200.39 62.265 200.39 62.0274V55.7363C200.39 55.4987 200.478 55.2921 200.653 55.1165C200.829 54.9409 201.036 54.8531 201.273 54.8531H201.583C201.821 54.8531 202.027 54.9409 202.203 55.1165C202.379 55.2921 202.466 55.4987 202.466 55.7363V56.3871C202.466 56.3975 202.471 56.4026 202.482 56.4026C202.502 56.4026 202.513 56.3975 202.513 56.3871C202.812 55.9739 203.205 55.6382 203.69 55.3799C204.176 55.1114 204.708 54.9461 205.286 54.8841C205.503 54.8634 205.689 54.9358 205.844 55.101C205.999 55.256 206.077 55.4419 206.077 55.6589C206.077 55.8758 205.999 56.0617 205.844 56.2167C205.689 56.3716 205.503 56.4594 205.286 56.4801C203.458 56.6247 202.544 57.5544 202.544 59.2692V62.0274C202.544 62.265 202.456 62.4716 202.28 62.6472C202.105 62.8228 201.898 62.9106 201.661 62.9106H201.273ZM212.349 56.852C212.05 56.4181 211.595 56.2012 210.986 56.2012C210.376 56.2012 209.917 56.4181 209.607 56.852C209.307 57.2755 209.157 57.9521 209.157 58.8818C209.157 59.8116 209.307 60.4933 209.607 60.9272C209.917 61.3507 210.376 61.5625 210.986 61.5625C211.595 61.5625 212.05 61.3507 212.349 60.9272C212.659 60.4933 212.814 59.8116 212.814 58.8818C212.814 57.9521 212.659 57.2755 212.349 56.852ZM213.868 61.9809C213.186 62.704 212.225 63.0655 210.986 63.0655C209.746 63.0655 208.78 62.704 208.088 61.9809C207.406 61.2474 207.066 60.2144 207.066 58.8818C207.066 57.5493 207.406 56.5214 208.088 55.7983C208.78 55.0649 209.746 54.6982 210.986 54.6982C212.225 54.6982 213.186 55.0649 213.868 55.7983C214.56 56.5214 214.906 57.5493 214.906 58.8818C214.906 60.2144 214.56 61.2474 213.868 61.9809ZM217.466 62.9106C217.229 62.9106 217.022 62.8228 216.846 62.6472C216.671 62.4716 216.583 62.265 216.583 62.0274V52.1725C216.583 51.9349 216.671 51.7283 216.846 51.5526C217.022 51.377 217.229 51.2892 217.466 51.2892H217.776C218.014 51.2892 218.22 51.377 218.396 51.5526C218.572 51.7283 218.659 51.9349 218.659 52.1725V58.1381C218.659 58.1484 218.664 58.1536 218.675 58.1536H218.69L221.046 55.5039C221.428 55.07 221.913 54.8531 222.502 54.8531H223.153C223.318 54.8531 223.432 54.9306 223.494 55.0855C223.566 55.2405 223.545 55.3799 223.432 55.5039L220.596 58.6339C220.545 58.6959 220.545 58.7631 220.596 58.8354L223.463 62.2443C223.576 62.3786 223.592 62.5232 223.509 62.6782C223.437 62.8331 223.318 62.9106 223.153 62.9106H222.502C221.913 62.9106 221.433 62.6833 221.061 62.2288L218.69 59.3622C218.69 59.3519 218.685 59.3467 218.675 59.3467C218.664 59.3467 218.659 59.3519 218.659 59.3622V62.0274C218.659 62.265 218.572 62.4716 218.396 62.6472C218.22 62.8228 218.014 62.9106 217.776 62.9106H217.466ZM227.901 56.1392C227.374 56.1392 226.966 56.289 226.677 56.5886C226.398 56.8778 226.223 57.3478 226.15 57.9986C226.15 58.0813 226.192 58.1226 226.274 58.1226H229.311C229.394 58.1226 229.435 58.0813 229.435 57.9986C229.394 56.759 228.883 56.1392 227.901 56.1392ZM228.289 63.0655C226.935 63.0655 225.892 62.7143 225.159 62.0119C224.435 61.2991 224.074 60.2558 224.074 58.8818C224.074 57.5183 224.399 56.4801 225.05 55.7673C225.701 55.0545 226.641 54.6982 227.87 54.6982C230.164 54.6982 231.341 55.9998 231.403 58.6029C231.413 58.8509 231.326 59.0575 231.14 59.2227C230.954 59.388 230.737 59.4707 230.489 59.4707H226.259C226.166 59.4707 226.13 59.5171 226.15 59.6101C226.223 60.3022 226.45 60.8084 226.832 61.1286C227.225 61.4385 227.793 61.5935 228.537 61.5935C229.001 61.5935 229.518 61.516 230.086 61.3611C230.272 61.3094 230.442 61.3404 230.597 61.454C230.763 61.5677 230.845 61.7226 230.845 61.9189C230.845 62.1565 230.773 62.3683 230.628 62.5542C230.494 62.7298 230.313 62.8383 230.086 62.8796C229.508 63.0036 228.908 63.0655 228.289 63.0655Z" fill="#98C0D9"/>
</svg>
